# xmcd
#
# Track frame offsets:
# 150
# 17316
# 28843
# 39427
# 48904
# 73005
# 95480
# 118772
# 136105
# 160968
# 171038
# 184448
# 193519
# 203378
#
# Disc length: 2834 seconds
#
#
# Revision: 0
# Processed by: cddbd v1.5.1PL2 Copyright (c) Steve Scherf et al.
# Submitted via: FreeRIP 2.945 
#
DISCID=b50b100e
DTITLE=Dick Farney - No Palco!
DYEAR=1900
DGENRE=Acid Jazz
TTITLE0=Prefixo
TTITLE1=Copacabana
TTITLE2=Nick-Bar
TTITLE3=Aeromoça
TTITLE4=Tereza Da Praia
TTITLE5=Pot-Pourri Da Urca (Parte 1)
TTITLE6=Pot-Pourri Da Urca (Parte 2)
TTITLE7=A Saudade Mata Agente
TTITLE8=Alguém Como Tu
TTITLE9=Noturno Em São Paulo
TTITLE10=Ponto Final
TTITLE11=The Lady Is A Tramp
TTITLE12=Solidão
TTITLE13=All The Way
EXTD=
EXTT0=
EXTT1=
EXTT2=
EXTT3=
EXTT4=
EXTT5=
EXTT6=
EXTT7=
EXTT8=
EXTT9=
EXTT10=
EXTT11=
EXTT12=
EXTT13=
PLAYORDER=
